<?xml version="1.0" encoding="UTF-8" standalone="no"?>
<!DOCTYPE svg PUBLIC "-//W3C//DTD SVG 1.1//EN" "http://www.w3.org/Graphics/SVG/1.1/DTD/svg11.dtd">
<svg width="100%" height="100%" viewBox="0 0 7087 3544" version="1.1" xmlns="http://www.w3.org/2000/svg" xmlns:xlink="http://www.w3.org/1999/xlink" xml:space="preserve" xmlns:serif="http://www.serif.com/" style="fill-rule:evenodd;clip-rule:evenodd;stroke-linejoin:round;stroke-miterlimit:2;">
    <g transform="matrix(1.38852,0,0,1.38852,164.068438,473.844245)">
        <g transform="matrix(1.629961,-0,0,1.629961,-77.8349,-90.573193)">
            <g transform="matrix(0.751689,0,0,0.751689,23.712915,46.652995)">
                <g transform="matrix(1,-0,0,1,1437.656284,160.170685)">
                    <g transform="matrix(1,0,0,1,-15.002676,0)">
                        <path d="M983.535,590.504L786.735,590.504L608.596,389.029L402.735,388.953L402.735,243.961L849.135,243.704C875.535,243.704 888.735,222.504 888.735,180.104C888.735,137.704 875.535,116.504 849.135,116.504L402.735,116.504L402.735,590.504L258.735,590.504L258.735,-27.496L857.535,-27.496C912.735,-27.496 956.335,-5.896 988.335,37.304C1017.935,76.504 1032.735,124.104 1032.735,180.104C1032.735,236.104 1017.935,283.704 988.335,322.904C956.335,366.104 912.735,387.704 857.535,387.704L802.335,387.704L983.535,590.504Z" style="fill:rgb(26,163,185);fill-rule:nonzero;"/>
                    </g>
                    <g transform="matrix(1,-0,0,1,-36.737966,0)">
                        <path d="M1829.535,399.704C1829.535,451.704 1813.935,496.104 1782.735,532.904C1749.135,571.304 1706.735,590.504 1655.535,590.504L1122.735,590.504L1122.735,446.504L1655.535,446.504C1675.535,446.504 1685.535,430.904 1685.535,399.704C1685.535,368.504 1675.535,352.904 1655.535,352.904L1267.935,352.904C1216.735,352.904 1174.335,333.704 1140.735,295.304C1108.735,259.304 1092.735,215.304 1092.735,163.304C1092.735,111.304 1109.135,66.504 1141.935,28.904C1174.735,-8.696 1216.735,-27.496 1267.935,-27.496L1800.735,-27.496L1800.735,116.504L1267.935,116.504C1247.935,116.504 1237.935,132.104 1237.935,163.304C1237.935,193.704 1247.935,208.904 1267.935,208.904L1655.535,208.904C1706.735,208.904 1749.135,228.104 1782.735,266.504C1813.935,303.304 1829.535,347.704 1829.535,399.704Z" style="fill:rgb(26,163,185);fill-rule:nonzero;"/>
                    </g>
                    <g transform="matrix(1,-0,0,1,-58.473255,0)">
                        <path d="M2548.335,116.504L2033.535,116.504L2033.535,208.904L2514.735,208.904L2514.735,352.904L2033.535,352.904L2033.535,446.504L2547.135,446.504L2547.135,590.504L1889.535,590.504L1889.535,-27.496L2548.335,-27.496L2548.335,116.504Z" style="fill:rgb(26,163,185);fill-rule:nonzero;"/>
                    </g>
                </g>
                <g transform="matrix(1,0,0,1,-149.629921,154.276408)">
                    <path d="M1017.135,398.504C1017.135,450.504 1000.735,495.304 967.935,532.904C935.135,570.504 893.135,589.304 841.935,589.304L433.935,589.304C381.935,589.304 339.735,570.504 307.335,532.904C274.935,495.304 258.735,450.504 258.735,398.504L258.735,-27.496L402.735,-27.496L402.735,398.504C402.735,429.704 413.135,445.304 433.935,445.304L841.935,445.304C861.935,445.304 871.935,429.704 871.935,398.504L871.935,-27.496L1017.135,-27.496L1017.135,398.504Z" style="fill:rgb(26,163,185);fill-rule:nonzero;"/>
                    <g transform="matrix(1,-0,0,1,-21.73529,0)">
                        <path d="M1813.935,399.704C1813.935,451.704 1798.335,496.104 1767.135,532.904C1733.535,571.304 1691.135,590.504 1639.935,590.504L1107.135,590.504L1107.135,446.504L1639.935,446.504C1659.935,446.504 1669.935,430.904 1669.935,399.704C1669.935,368.504 1659.935,352.904 1639.935,352.904L1252.335,352.904C1201.135,352.904 1158.735,333.704 1125.135,295.304C1093.135,259.304 1077.135,215.304 1077.135,163.304C1077.135,111.304 1093.535,66.504 1126.335,28.904C1159.135,-8.696 1201.135,-27.496 1252.335,-27.496L1785.135,-27.496L1785.135,116.504L1252.335,116.504C1232.335,116.504 1222.335,132.104 1222.335,163.304C1222.335,193.704 1232.335,208.904 1252.335,208.904L1639.935,208.904C1691.135,208.904 1733.535,228.104 1767.135,266.504C1798.335,303.304 1813.935,347.704 1813.935,399.704Z" style="fill:rgb(26,163,185);fill-rule:nonzero;"/>
                    </g>
                </g>
            </g>
            <g transform="matrix(0.666928,0,-0.046636,0.666928,-2139.592842,-1362.985179)">
                <g transform="matrix(1,0,0,1,593.540253,-550)">
                    <path d="M3684.645,3839.893C3684.645,3891.893 3669.045,3935.893 3637.845,3971.893C3604.245,4010.293 3561.845,4029.493 3510.645,4029.493L3346.245,4029.493C3299.845,4029.493 3266.245,4034.293 3245.445,4043.893C3215.845,4058.293 3197.845,4084.693 3191.445,4123.093L3655.845,4123.093L3655.845,4267.093L3033.045,4267.093L3031.845,4193.893C3028.645,3988.293 3133.445,3885.493 3346.245,3885.493L3510.645,3885.493C3531.445,3885.493 3541.845,3869.893 3541.845,3838.693C3541.845,3808.293 3531.445,3793.093 3510.645,3793.093L3061.845,3793.093L3061.845,3649.093L3510.645,3649.093C3561.845,3649.093 3604.245,3668.293 3637.845,3706.693C3669.045,3743.493 3684.645,3787.893 3684.645,3839.893Z" style="fill:rgb(26,163,185);fill-rule:nonzero;"/>
                </g>
                <g transform="matrix(1,0,0,1,573.139792,-550)">
                    <path d="M4347.045,4071.493C4347.045,4127.493 4327.645,4174.093 4288.845,4211.293C4250.045,4248.493 4202.645,4267.093 4146.645,4267.093L3946.245,4267.093C3890.245,4267.093 3842.645,4248.493 3803.445,4211.293C3764.245,4174.093 3744.645,4127.493 3744.645,4071.493L3744.645,3844.693C3744.645,3788.693 3764.245,3742.093 3803.445,3704.893C3842.645,3667.693 3890.245,3649.093 3946.245,3649.093L4146.645,3649.093C4202.645,3649.093 4250.045,3667.693 4288.845,3704.893C4327.645,3742.093 4347.045,3788.693 4347.045,3844.693L4347.045,4071.493ZM4203.045,4071.493L4203.045,3844.693C4203.045,3810.293 4184.245,3793.093 4146.645,3793.093L3946.245,3793.093C3907.845,3793.093 3888.645,3810.293 3888.645,3844.693L3888.645,4071.493C3888.645,4105.893 3907.845,4123.093 3946.245,4123.093L4146.645,4123.093C4184.245,4123.093 4203.045,4105.893 4203.045,4071.493Z" style="fill:rgb(26,163,185);fill-rule:nonzero;"/>
                </g>
                <g transform="matrix(1,0,0,1,561.938406,-550)">
                    <path d="M5059.845,3839.893C5059.845,3891.893 5044.245,3935.893 5013.045,3971.893C4979.445,4010.293 4937.045,4029.493 4885.845,4029.493L4721.445,4029.493C4675.045,4029.493 4641.445,4034.293 4620.645,4043.893C4591.045,4058.293 4573.045,4084.693 4566.645,4123.093L5031.045,4123.093L5031.045,4267.093L4408.245,4267.093L4407.045,4193.893C4403.845,3988.293 4508.645,3885.493 4721.445,3885.493L4885.845,3885.493C4906.645,3885.493 4917.045,3869.893 4917.045,3838.693C4917.045,3808.293 4906.645,3793.093 4885.845,3793.093L4437.045,3793.093L4437.045,3649.093L4885.845,3649.093C4937.045,3649.093 4979.445,3668.293 5013.045,3706.693C5044.245,3743.493 5059.845,3787.893 5059.845,3839.893Z" style="fill:rgb(26,163,185);fill-rule:nonzero;"/>
                </g>
                <g transform="matrix(1,0,0,1,540.618037,-550)">
                    <path d="M5723.445,4071.493C5723.445,4127.493 5703.845,4174.093 5664.645,4211.293C5625.445,4248.493 5577.845,4267.093 5521.845,4267.093L5321.445,4267.093C5265.445,4267.093 5217.845,4248.493 5178.645,4211.293C5139.445,4174.093 5119.845,4127.493 5119.845,4071.493L5119.845,3845.893C5119.845,3789.893 5139.445,3743.093 5178.645,3705.493C5217.845,3667.893 5265.445,3649.093 5321.445,3649.093L5663.445,3649.093L5663.445,3793.093L5321.445,3793.093C5283.045,3793.093 5263.845,3810.693 5263.845,3845.893L5263.845,3854.293C5282.245,3849.493 5301.445,3847.093 5321.445,3847.093L5521.845,3847.093C5577.845,3847.093 5625.445,3865.493 5664.645,3902.293C5703.845,3939.093 5723.445,3985.493 5723.445,4041.493L5723.445,4071.493ZM5579.445,4071.493L5579.445,4041.493C5579.445,4007.893 5560.245,3991.093 5521.845,3991.093L5321.445,3991.093C5283.045,3991.093 5263.845,4007.893 5263.845,4041.493L5263.845,4071.493C5263.845,4105.893 5283.045,4123.093 5321.445,4123.093L5521.845,4123.093C5560.245,4123.093 5579.445,4105.893 5579.445,4071.493Z" style="fill:rgb(26,163,185);fill-rule:nonzero;"/>
                </g>
            </g>
        </g>
        <g transform="matrix(2.01242,-0,0,2.01242,-352.034002,-661.655007)">
            <g transform="matrix(0.968559,0,0,0.901592,-2576.958213,-944.153895)">
                <path d="M4594.107,2072.628C4665.861,2025.191 4755.614,1997 4853,1997C4950.386,1997 5040.139,2025.191 5111.893,2072.628L4594.107,2072.628ZM5154.165,2104.585C5175.769,2123.214 5195.064,2143.835 5211.649,2166.101L4494.351,2166.101C4510.936,2143.835 4530.231,2123.214 4551.835,2104.585L5154.165,2104.585ZM5232.906,2198.058C5243.965,2216.806 5253.215,2236.482 5260.455,2256.915L4445.545,2256.915C4452.785,2236.482 4462.035,2216.806 4473.094,2198.058L5232.906,2198.058ZM5269.97,2288.872C5275.888,2313.279 5279,2338.576 5279,2364.5L4427,2364.5C4427,2338.576 4430.112,2313.279 4436.03,2288.872L5269.97,2288.872Z" style="fill:rgb(207,94,31);"/>
            </g>
            <g transform="matrix(-0.263422,-0,0,0.263422,2405.128287,703.072651)">
                <path d="M882.87,654.101C775.247,618.448 697.786,666.458 649.33,718.091C678.638,653.639 693.55,563.732 619.619,477.779C579.478,431.104 516.849,401.734 473.973,393.978C473.973,393.978 480.259,409.301 489.55,434.464C496.577,453.475 508.271,470.46 523.727,483.559C523.836,483.651 523.947,483.743 524.057,483.835C540.098,497.366 558.595,507.572 577.103,517.507C555.283,515.85 534.403,512.274 514.682,506.828C516.151,511.384 517.641,516.019 519.125,520.729C522.935,532.801 528.614,544.234 536.246,554.332C537.741,556.31 539.283,558.239 540.875,560.148C553.317,575.047 568.524,587.314 583.794,599.34C567.563,595.182 552.139,589.937 537.607,583.655C539.547,590.854 541.446,598.107 543.279,605.409C544.988,612.227 547.632,618.798 551.345,624.777C551.538,625.09 551.736,625.395 551.924,625.684C559.592,637.552 570.417,647.255 581.324,656.765C571.432,654.497 562.062,651.755 553.234,648.568C556.489,664.187 559.306,679.717 561.531,694.879C529.02,628.944 467.506,560.516 352.11,559.875C286.611,559.502 219.304,589.273 183.144,618.271C183.144,618.271 199.83,623.935 226.52,634.035C246.682,641.676 268.48,644.154 289.79,640.887C289.943,640.87 290.093,640.841 290.24,640.82C312.306,637.385 333.42,629.662 354.319,621.748C337.748,638.1 320.298,652.368 302.153,664.399C306.836,666.391 311.601,668.439 316.422,670.54C328.769,675.911 341.909,679.337 355.346,680.263C357.978,680.445 360.607,680.549 363.246,680.602C383.893,681.02 404.366,677.378 424.677,673.518C410.009,683.643 395.028,692.364 379.838,699.635C386.974,703.103 394.119,706.653 401.261,710.278C407.932,713.671 415.056,716.127 422.441,717.328C422.828,717.387 423.208,717.443 423.58,717.494C438.46,719.623 453.804,717.713 469.056,715.596C460.327,721.948 451.587,727.567 442.859,732.417C455.929,739.744 468.712,747.289 480.967,755.019C409.298,735.008 314.972,734.683 237.125,823.184C193.862,872.356 172.145,942.681 170.296,989C170.296,989 185.513,980.118 210.656,966.615C229.65,956.42 245.824,941.591 257.351,923.375C257.437,923.243 257.51,923.113 257.592,922.988C269.483,904.091 277.518,883.094 285.258,862.128C286.723,885.358 286.035,907.888 283.203,929.473C287.787,927.256 292.447,925.006 297.202,922.743C309.359,916.954 320.57,909.282 330.081,899.754C331.947,897.888 333.757,895.971 335.524,894.011C349.395,878.711 360.083,860.874 370.497,843.013C368.509,860.73 365.264,877.753 360.775,893.994C368.071,890.885 375.44,887.819 382.861,884.811C389.795,882.001 396.327,878.243 402.082,873.455C402.379,873.204 402.676,872.954 402.962,872.706C414.331,862.877 422.964,850.05 431.37,837.15C430.435,847.903 428.929,858.185 426.873,867.959C457.881,856.84 488.754,847.501 517.601,841.452C484.733,877.434 456.917,918.03 435.562,961.721C237.043,1367.89 526.682,1750.52 429.645,1806.02L763.391,1806.02C619.307,1778.09 582.631,1665.35 548.6,1591.15C471.336,1422.45 424.155,1228.95 473.576,1045.88C478.786,1026.41 485.398,1006.59 492.873,987.862C513.096,937.245 541.092,889.198 576.932,847.995C588.421,885.68 594.186,932.725 596.443,981.531C604.688,975.906 613.624,970.611 623.214,965.643C614.489,978.331 605.91,991.199 601.145,1005.45C601.024,1005.82 600.91,1006.18 600.792,1006.55C598.546,1013.69 597.563,1021.16 597.598,1028.65C597.652,1036.65 597.614,1044.63 597.522,1052.56C610.83,1042.24 625.342,1032.75 640.957,1024.17C628.411,1040.6 615.98,1057.27 607.104,1075.92C605.973,1078.3 604.89,1080.71 603.876,1083.14C598.678,1095.57 595.858,1108.85 595.128,1122.3C594.846,1127.55 594.543,1132.72 594.226,1137.81C613.12,1126.97 633.685,1117.75 655.726,1110.27C639.289,1125.4 622.924,1140.83 609.979,1159.02C609.89,1159.14 609.801,1159.26 609.708,1159.39C597.247,1176.98 589.699,1197.58 587.491,1219.02C584.577,1247.41 582.161,1264.87 582.161,1264.87C624.289,1245.52 681.052,1198.68 710.062,1139.96C762.245,1034.34 726.103,947.283 680.365,888.617C691.81,896.791 703.282,905.468 714.668,914.478C715.84,904.56 717.703,894.339 720.254,883.854C724.1,898.761 728.179,913.677 735.806,926.631C735.995,926.951 736.195,927.286 736.399,927.613C740.323,933.991 745.306,939.639 750.977,944.524C757.049,949.744 763.047,955.008 768.97,960.286C769.911,943.46 772.284,926.29 776.061,908.875C780.214,929.124 784.646,949.439 792.882,968.378C793.942,970.796 795.045,973.19 796.212,975.554C802.173,987.629 810.349,998.478 820.016,1007.85C823.788,1011.51 827.495,1015.13 831.124,1018.71C835.341,997.346 841.893,975.783 850.707,954.229C851.343,976.572 852.242,999.038 857.463,1020.74C857.499,1020.9 857.532,1021.04 857.571,1021.19C862.662,1042.14 873.252,1061.36 887.987,1077.1C907.489,1097.93 919.074,1111.2 919.074,1111.2C932.129,1066.73 934.043,993.152 908.769,932.724C864.255,826.261 777.56,795.417 704.214,790.45C719.09,786.74 734.519,783.433 750.205,780.495C743.892,773.548 737.796,765.922 731.924,757.64C744.873,764.113 757.965,770.419 771.856,773.004C772.205,773.061 772.558,773.13 772.919,773.184C779.862,774.34 786.94,774.293 793.904,773.28C801.352,772.191 808.78,771.187 816.174,770.24C804.828,759.196 794.111,746.924 784.095,733.497C801.017,743.046 818.152,752.441 836.672,758.278C839.037,759.024 841.416,759.712 843.811,760.341C856.056,763.559 868.785,764.452 881.397,763.383C886.323,762.97 891.174,762.57 895.948,762.204C883.405,746.032 872.15,728.084 862.307,708.546C878.542,721.872 895.028,735.095 913.64,744.783C913.766,744.846 913.893,744.909 914.015,744.98C932.021,754.291 952.18,758.639 972.426,757.89C999.233,756.911 1015.8,756.889 1015.8,756.889C992.302,720.197 941.309,673.458 882.87,654.101Z" style="fill:white;fill-rule:nonzero;"/>
                <path d="M484.198,491.85C480.372,499.64 479.612,508.739 482.357,517.251C483.803,521.736 485.27,526.299 486.731,530.936L486.736,530.951C491.207,545.118 497.692,558.588 506.193,570.743C505.869,571.532 505.575,572.332 505.311,573.142C466.84,545.132 416.931,526.271 352.302,525.912C278.485,525.492 202.648,559.094 161.896,591.775C152.221,599.533 147.544,611.949 149.695,624.162C151.846,636.376 160.483,646.446 172.227,650.432C172.227,650.432 188.487,655.957 214.484,665.795C232.388,672.58 251.309,676.14 270.324,676.254C273.534,684.87 280.163,691.954 288.859,695.653C293.452,697.607 298.125,699.615 302.853,701.675L302.874,701.685C317.534,708.062 333.075,712.26 348.973,713.81C349.28,714.479 349.609,715.136 349.958,715.782C302.839,726.117 255.011,751.427 211.625,800.75C162.868,856.167 138.443,935.444 136.359,987.645C135.864,1000.041 142.167,1011.72 152.8,1018.111C163.432,1024.501 176.703,1024.586 187.417,1018.333C187.417,1018.333 202.239,1009.687 226.718,996.541C243.635,987.461 258.777,975.473 271.283,961.277C279.859,964.491 289.515,964.148 297.991,960.049C302.512,957.862 307.108,955.643 311.797,953.411L311.804,953.408C326.239,946.534 339.609,937.558 351.207,926.583C358.623,928.759 366.71,928.384 374.089,925.239C381.202,922.209 388.385,919.22 395.617,916.288C404.853,912.546 413.576,907.614 421.424,901.483C424.18,901.931 426.993,902.04 429.799,901.797C420.834,916.402 412.566,931.425 405.048,946.807C261.576,1240.349 362.61,1521.98 403.251,1684.196C410.847,1714.516 416.297,1739.991 416.2,1759.822C416.18,1763.927 415.914,1767.684 415.202,1771.062C414.726,1773.318 414.594,1775.502 412.783,1776.538C399.417,1784.182 392.866,1799.863 396.821,1814.744C400.776,1829.625 414.247,1839.984 429.645,1839.984L763.391,1839.984C780.891,1839.984 795.527,1826.687 797.199,1809.267C798.872,1791.847 787.035,1776.007 769.854,1772.677C640.377,1747.578 610.053,1643.669 579.479,1577.007C505.449,1415.369 459.014,1230.139 506.366,1054.732L506.386,1054.66C511.253,1036.47 517.432,1017.955 524.415,1000.458C533.945,976.605 545.313,953.355 558.546,931.236C560.423,948.006 561.698,965.432 562.515,983.1C562.786,988.947 564.551,994.507 567.512,999.322C564.825,1008.903 563.588,1018.84 563.635,1028.809L563.635,1028.879C563.687,1036.671 563.65,1044.443 563.56,1052.166C563.467,1060.178 566.198,1067.787 571.027,1073.81C565.286,1088.719 562.081,1104.49 561.214,1120.459L561.213,1120.478C560.936,1125.63 560.639,1130.704 560.328,1135.699C559.74,1145.129 563.105,1154.228 569.369,1160.956C560.959,1178.003 555.666,1196.507 553.706,1215.541L553.705,1215.552C550.866,1243.206 548.518,1260.215 548.518,1260.215C546.817,1272.502 551.951,1284.739 561.909,1292.135C571.867,1299.532 585.065,1300.911 596.337,1295.734C643.813,1273.927 707.819,1221.179 740.512,1155.004C769.732,1095.862 774.853,1041.797 766.327,994.147C766.757,994.181 767.186,994.206 767.617,994.223C775.095,1008.334 784.897,1021.108 796.364,1032.225C800.068,1035.819 803.708,1039.374 807.272,1042.889C814.003,1049.529 823.082,1052.967 832.276,1052.655C839.62,1070.194 850.111,1086.338 863.193,1100.312C882.196,1120.609 893.489,1133.537 893.489,1133.537C901.644,1142.879 914.243,1147.033 926.356,1144.374C938.469,1141.715 948.169,1132.666 951.663,1120.767C966.376,1070.649 968.587,987.723 940.103,919.62C915.172,859.993 878.734,821.019 838.187,796.104C838.835,795.553 839.463,794.977 840.068,794.378C854.545,797.615 869.462,798.48 884.235,797.228C889.079,796.822 893.849,796.428 898.544,796.069C907.485,795.383 915.638,791.214 921.402,784.692C938.215,790.081 955.916,792.488 973.666,791.831C999.734,790.879 1015.845,790.853 1015.845,790.853C1028.251,790.836 1039.66,784.058 1045.607,773.17C1051.554,762.283 1051.092,749.019 1044.401,738.572C1017.73,696.925 959.882,643.832 893.55,621.86C818.892,597.128 756.779,607.132 706.998,631.997C711.043,576.501 696.653,515.256 645.369,455.632C599.805,402.652 528.687,369.36 480.019,360.557C467.811,358.348 455.371,362.971 447.568,372.616C439.766,382.26 437.842,395.391 442.55,406.869C442.55,406.869 448.657,421.766 457.689,446.228L457.693,446.239C463.855,462.911 472.821,478.361 484.198,491.85ZM882.87,654.101C941.309,673.458 992.302,720.197 1015.8,756.889C1015.8,756.889 999.233,756.911 972.426,757.89C952.18,758.639 932.021,754.291 914.015,744.98C913.893,744.909 913.766,744.846 913.64,744.783C895.028,735.095 878.542,721.872 862.307,708.546C872.15,728.084 883.405,746.032 895.948,762.204C891.174,762.57 886.323,762.97 881.397,763.383C868.785,764.452 856.056,763.559 843.811,760.341C841.416,759.712 839.037,759.024 836.672,758.278C818.152,752.441 801.017,743.046 784.095,733.497C794.111,746.924 804.828,759.196 816.174,770.24C808.78,771.187 801.352,772.191 793.904,773.28C786.94,774.293 779.862,774.34 772.919,773.184C772.558,773.13 772.205,773.061 771.856,773.004C757.965,770.419 744.873,764.113 731.924,757.64C737.796,765.922 743.892,773.548 750.205,780.495C734.519,783.433 719.09,786.74 704.214,790.45C777.56,795.417 864.255,826.261 908.769,932.724C934.043,993.152 932.129,1066.73 919.074,1111.2C919.074,1111.2 907.489,1097.93 887.987,1077.1C873.252,1061.36 862.662,1042.14 857.571,1021.19C857.532,1021.04 857.499,1020.9 857.463,1020.74C852.242,999.038 851.343,976.572 850.707,954.229C841.893,975.783 835.341,997.346 831.124,1018.71C827.495,1015.13 823.788,1011.51 820.016,1007.85C810.349,998.478 802.173,987.629 796.212,975.554C795.045,973.19 793.942,970.796 792.882,968.378C784.646,949.439 780.214,929.124 776.061,908.875C772.284,926.29 769.911,943.46 768.97,960.286C763.047,955.008 757.049,949.744 750.977,944.524C745.306,939.639 740.323,933.991 736.399,927.613C736.195,927.286 735.995,926.951 735.806,926.631C728.179,913.677 724.1,898.761 720.254,883.854C717.703,894.339 715.84,904.56 714.668,914.478C703.282,905.468 691.81,896.791 680.365,888.617C726.103,947.283 762.245,1034.34 710.062,1139.96C681.052,1198.68 624.289,1245.52 582.161,1264.87C582.161,1264.87 584.577,1247.41 587.491,1219.02C589.699,1197.58 597.247,1176.98 609.708,1159.39C609.801,1159.26 609.89,1159.14 609.979,1159.02C622.924,1140.83 639.289,1125.4 655.726,1110.27C633.685,1117.75 613.12,1126.97 594.226,1137.81C594.543,1132.72 594.846,1127.55 595.128,1122.3C595.858,1108.85 598.678,1095.57 603.876,1083.14C604.89,1080.71 605.973,1078.3 607.104,1075.92C615.98,1057.27 628.411,1040.6 640.957,1024.17C625.342,1032.75 610.83,1042.24 597.522,1052.56C597.614,1044.63 597.652,1036.65 597.598,1028.65C597.563,1021.16 598.546,1013.69 600.792,1006.55C600.91,1006.18 601.024,1005.82 601.145,1005.45C605.91,991.199 614.489,978.331 623.214,965.643C613.624,970.611 604.688,975.906 596.443,981.531C594.186,932.725 588.421,885.68 576.932,847.995C541.092,889.198 513.096,937.245 492.873,987.862C485.398,1006.59 478.786,1026.41 473.576,1045.88C424.155,1228.95 471.336,1422.45 548.6,1591.15C582.631,1665.35 619.307,1778.09 763.391,1806.02L429.645,1806.02C526.682,1750.52 237.043,1367.89 435.562,961.721C456.917,918.03 484.733,877.434 517.601,841.452C488.754,847.501 457.881,856.84 426.873,867.959C428.929,858.185 430.435,847.903 431.37,837.15C422.964,850.05 414.331,862.877 402.962,872.706C402.676,872.954 402.379,873.204 402.082,873.455C396.327,878.243 389.795,882.001 382.861,884.811C375.44,887.819 368.071,890.885 360.775,893.994C365.264,877.753 368.509,860.73 370.497,843.013C360.083,860.874 349.395,878.711 335.524,894.011C333.757,895.971 331.947,897.888 330.081,899.754C320.57,909.282 309.359,916.954 297.202,922.743C292.447,925.006 287.787,927.256 283.203,929.473C286.035,907.888 286.723,885.358 285.258,862.128C277.518,883.094 269.483,904.091 257.592,922.988C257.51,923.113 257.437,923.243 257.351,923.375C245.824,941.591 229.65,956.42 210.656,966.615C185.513,980.118 170.296,989 170.296,989C172.145,942.681 193.862,872.356 237.125,823.184C314.972,734.683 409.298,735.008 480.967,755.019C468.712,747.289 455.929,739.744 442.859,732.417C451.587,727.567 460.327,721.948 469.056,715.596C453.804,717.713 438.46,719.623 423.58,717.494C423.208,717.443 422.828,717.387 422.441,717.328C415.056,716.127 407.932,713.671 401.261,710.278C394.119,706.653 386.974,703.103 379.838,699.635C395.028,692.364 410.009,683.643 424.677,673.518C404.366,677.378 383.893,681.02 363.246,680.602C360.607,680.549 357.978,680.445 355.346,680.263C341.909,679.337 328.769,675.911 316.422,670.54C311.601,668.439 306.836,666.391 302.153,664.399C320.298,652.368 337.748,638.1 354.319,621.748C333.42,629.662 312.306,637.385 290.24,640.82C290.093,640.841 289.943,640.87 289.79,640.887C268.48,644.154 246.682,641.676 226.52,634.035C199.83,623.935 183.144,618.271 183.144,618.271C219.304,589.273 286.611,559.502 352.11,559.875C467.506,560.516 529.02,628.944 561.531,694.879C559.306,679.717 556.489,664.187 553.234,648.568C562.062,651.755 571.432,654.497 581.324,656.765C570.417,647.255 559.592,637.552 551.924,625.684C551.736,625.395 551.538,625.09 551.345,624.777C547.632,618.798 544.988,612.227 543.279,605.409C541.446,598.107 539.547,590.854 537.607,583.655C552.139,589.937 567.563,595.182 583.794,599.34C568.524,587.314 553.317,575.047 540.875,560.148C539.283,558.239 537.741,556.31 536.246,554.332C528.614,544.234 522.935,532.801 519.125,520.729C517.641,516.019 516.151,511.384 514.682,506.828C534.403,512.274 555.283,515.85 577.103,517.507C558.595,507.572 540.098,497.366 524.057,483.835L523.727,483.559C508.271,470.46 496.577,453.475 489.55,434.464C480.259,409.301 473.973,393.978 473.973,393.978C516.849,401.734 579.478,431.104 619.619,477.779C693.55,563.732 678.638,653.639 649.33,718.091C697.786,666.458 775.247,618.448 882.87,654.101Z" style="fill:rgb(207,94,31);"/>
            </g>
            <g transform="matrix(0.263422,0,0,0.263422,1841.791549,703.072651)">
                <path d="M882.87,654.101C775.247,618.448 697.786,666.458 649.33,718.091C678.638,653.639 693.55,563.732 619.619,477.779C579.478,431.104 516.849,401.734 473.973,393.978C473.973,393.978 480.259,409.301 489.55,434.464C496.577,453.475 508.271,470.46 523.727,483.559C523.836,483.651 523.947,483.743 524.057,483.835C540.098,497.366 558.595,507.572 577.103,517.507C555.283,515.85 534.403,512.274 514.682,506.828C516.151,511.384 517.641,516.019 519.125,520.729C522.935,532.801 528.614,544.234 536.246,554.332C537.741,556.31 539.283,558.239 540.875,560.148C553.317,575.047 568.524,587.314 583.794,599.34C567.563,595.182 552.139,589.937 537.607,583.655C539.547,590.854 541.446,598.107 543.279,605.409C544.988,612.227 547.632,618.798 551.345,624.777C551.538,625.09 551.736,625.395 551.924,625.684C559.592,637.552 570.417,647.255 581.324,656.765C571.432,654.497 562.062,651.755 553.234,648.568C556.489,664.187 559.306,679.717 561.531,694.879C529.02,628.944 467.506,560.516 352.11,559.875C286.611,559.502 219.304,589.273 183.144,618.271C183.144,618.271 199.83,623.935 226.52,634.035C246.682,641.676 268.48,644.154 289.79,640.887C289.943,640.87 290.093,640.841 290.24,640.82C312.306,637.385 333.42,629.662 354.319,621.748C337.748,638.1 320.298,652.368 302.153,664.399C306.836,666.391 311.601,668.439 316.422,670.54C328.769,675.911 341.909,679.337 355.346,680.263C357.978,680.445 360.607,680.549 363.246,680.602C383.893,681.02 404.366,677.378 424.677,673.518C410.009,683.643 395.028,692.364 379.838,699.635C386.974,703.103 394.119,706.653 401.261,710.278C407.932,713.671 415.056,716.127 422.441,717.328C422.828,717.387 423.208,717.443 423.58,717.494C438.46,719.623 453.804,717.713 469.056,715.596C460.327,721.948 451.587,727.567 442.859,732.417C455.929,739.744 468.712,747.289 480.967,755.019C409.298,735.008 314.972,734.683 237.125,823.184C193.862,872.356 172.145,942.681 170.296,989C170.296,989 185.513,980.118 210.656,966.615C229.65,956.42 245.824,941.591 257.351,923.375C257.437,923.243 257.51,923.113 257.592,922.988C269.483,904.091 277.518,883.094 285.258,862.128C286.723,885.358 286.035,907.888 283.203,929.473C287.787,927.256 292.447,925.006 297.202,922.743C309.359,916.954 320.57,909.282 330.081,899.754C331.947,897.888 333.757,895.971 335.524,894.011C349.395,878.711 360.083,860.874 370.497,843.013C368.509,860.73 365.264,877.753 360.775,893.994C368.071,890.885 375.44,887.819 382.861,884.811C389.795,882.001 396.327,878.243 402.082,873.455C402.379,873.204 402.676,872.954 402.962,872.706C414.331,862.877 422.964,850.05 431.37,837.15C430.435,847.903 428.929,858.185 426.873,867.959C457.881,856.84 488.754,847.501 517.601,841.452C484.733,877.434 456.917,918.03 435.562,961.721C237.043,1367.89 526.682,1750.52 429.645,1806.02L763.391,1806.02C619.307,1778.09 582.631,1665.35 548.6,1591.15C471.336,1422.45 424.155,1228.95 473.576,1045.88C478.786,1026.41 485.398,1006.59 492.873,987.862C513.096,937.245 541.092,889.198 576.932,847.995C588.421,885.68 594.186,932.725 596.443,981.531C604.688,975.906 613.624,970.611 623.214,965.643C614.489,978.331 605.91,991.199 601.145,1005.45C601.024,1005.82 600.91,1006.18 600.792,1006.55C598.546,1013.69 597.563,1021.16 597.598,1028.65C597.652,1036.65 597.614,1044.63 597.522,1052.56C610.83,1042.24 625.342,1032.75 640.957,1024.17C628.411,1040.6 615.98,1057.27 607.104,1075.92C605.973,1078.3 604.89,1080.71 603.876,1083.14C598.678,1095.57 595.858,1108.85 595.128,1122.3C594.846,1127.55 594.543,1132.72 594.226,1137.81C613.12,1126.97 633.685,1117.75 655.726,1110.27C639.289,1125.4 622.924,1140.83 609.979,1159.02C609.89,1159.14 609.801,1159.26 609.708,1159.39C597.247,1176.98 589.699,1197.58 587.491,1219.02C584.577,1247.41 582.161,1264.87 582.161,1264.87C624.289,1245.52 681.052,1198.68 710.062,1139.96C762.245,1034.34 726.103,947.283 680.365,888.617C691.81,896.791 703.282,905.468 714.668,914.478C715.84,904.56 717.703,894.339 720.254,883.854C724.1,898.761 728.179,913.677 735.806,926.631C735.995,926.951 736.195,927.286 736.399,927.613C740.323,933.991 745.306,939.639 750.977,944.524C757.049,949.744 763.047,955.008 768.97,960.286C769.911,943.46 772.284,926.29 776.061,908.875C780.214,929.124 784.646,949.439 792.882,968.378C793.942,970.796 795.045,973.19 796.212,975.554C802.173,987.629 810.349,998.478 820.016,1007.85C823.788,1011.51 827.495,1015.13 831.124,1018.71C835.341,997.346 841.893,975.783 850.707,954.229C851.343,976.572 852.242,999.038 857.463,1020.74C857.499,1020.9 857.532,1021.04 857.571,1021.19C862.662,1042.14 873.252,1061.36 887.987,1077.1C907.489,1097.93 919.074,1111.2 919.074,1111.2C932.129,1066.73 934.043,993.152 908.769,932.724C864.255,826.261 777.56,795.417 704.214,790.45C719.09,786.74 734.519,783.433 750.205,780.495C743.892,773.548 737.796,765.922 731.924,757.64C744.873,764.113 757.965,770.419 771.856,773.004C772.205,773.061 772.558,773.13 772.919,773.184C779.862,774.34 786.94,774.293 793.904,773.28C801.352,772.191 808.78,771.187 816.174,770.24C804.828,759.196 794.111,746.924 784.095,733.497C801.017,743.046 818.152,752.441 836.672,758.278C839.037,759.024 841.416,759.712 843.811,760.341C856.056,763.559 868.785,764.452 881.397,763.383C886.323,762.97 891.174,762.57 895.948,762.204C883.405,746.032 872.15,728.084 862.307,708.546C878.542,721.872 895.028,735.095 913.64,744.783C913.766,744.846 913.893,744.909 914.015,744.98C932.021,754.291 952.18,758.639 972.426,757.89C999.233,756.911 1015.8,756.889 1015.8,756.889C992.302,720.197 941.309,673.458 882.87,654.101Z" style="fill:white;fill-rule:nonzero;"/>
                <path d="M349.958,715.782C349.609,715.136 349.28,714.479 348.973,713.81C333.075,712.26 317.534,708.062 302.874,701.685L302.853,701.675C298.125,699.615 293.452,697.607 288.859,695.653C280.163,691.954 273.534,684.87 270.324,676.254C251.311,676.14 232.393,672.582 214.499,665.801C188.487,655.957 172.227,650.432 172.227,650.432C160.483,646.446 151.846,636.376 149.695,624.162C147.544,611.949 152.221,599.533 161.896,591.775C202.648,559.094 278.485,525.492 352.302,525.912C416.931,526.271 466.84,545.132 505.311,573.142C505.575,572.332 505.869,571.532 506.193,570.743C497.692,558.588 491.207,545.118 486.736,530.951L486.731,530.936C485.27,526.299 483.803,521.736 482.357,517.251C479.612,508.739 480.372,499.64 484.198,491.85C472.821,478.361 463.855,462.911 457.693,446.239L457.689,446.228C448.657,421.766 442.55,406.869 442.55,406.869C437.842,395.391 439.766,382.26 447.568,372.616C455.371,362.971 467.811,358.348 480.019,360.557C528.687,369.36 599.805,402.651 645.369,455.632C696.653,515.256 711.043,576.501 706.998,631.997C756.779,607.132 818.892,597.128 893.55,621.86C959.882,643.832 1017.73,696.925 1044.401,738.572C1051.092,749.019 1051.554,762.283 1045.607,773.17C1039.66,784.058 1028.251,790.836 1015.845,790.853C1015.845,790.853 999.734,790.879 973.682,791.831C955.921,792.488 938.216,790.081 921.402,784.692C915.639,791.214 907.485,795.383 898.544,796.069C893.849,796.428 889.079,796.822 884.265,797.226C869.465,798.48 854.545,797.615 840.068,794.378C839.463,794.977 838.835,795.553 838.187,796.104C878.734,821.019 915.172,859.993 940.103,919.62C968.587,987.723 966.376,1070.649 951.663,1120.767C948.169,1132.666 938.469,1141.715 926.356,1144.374C914.243,1147.033 901.644,1142.879 893.489,1133.537C893.489,1133.537 882.196,1120.609 863.193,1100.312C850.111,1086.338 839.62,1070.194 832.276,1052.655C823.082,1052.967 814.003,1049.529 807.272,1042.889C803.708,1039.374 800.068,1035.819 796.375,1032.235C784.898,1021.109 775.095,1008.334 767.617,994.223C767.186,994.206 766.757,994.181 766.327,994.147C774.853,1041.797 769.732,1095.862 740.512,1155.004C707.819,1221.179 643.813,1273.927 596.337,1295.734C585.065,1300.911 571.867,1299.532 561.909,1292.135C551.951,1284.739 546.817,1272.502 548.518,1260.215C548.518,1260.215 550.866,1243.206 553.705,1215.552L553.706,1215.541C555.666,1196.507 560.959,1178.003 569.369,1160.956C563.105,1154.228 559.74,1145.129 560.328,1135.699C560.639,1130.704 560.936,1125.63 561.213,1120.478L561.214,1120.459C562.081,1104.49 565.286,1088.719 571.027,1073.81C566.198,1067.787 563.467,1060.178 563.56,1052.166C563.65,1044.443 563.687,1036.671 563.635,1028.879L563.635,1028.809C563.588,1018.84 564.825,1008.903 567.512,999.322C564.551,994.507 562.786,988.947 562.515,983.1C561.698,965.433 560.423,948.007 558.546,931.236C545.313,953.355 533.945,976.605 524.415,1000.458C517.432,1017.955 511.253,1036.47 506.386,1054.66L506.366,1054.732C459.014,1230.139 505.449,1415.369 579.472,1576.991C610.053,1643.669 640.377,1747.578 769.854,1772.677C787.035,1776.007 798.872,1791.847 797.199,1809.267C795.527,1826.687 780.891,1839.984 763.391,1839.984L429.645,1839.984C414.247,1839.984 400.776,1829.625 396.821,1814.744C392.866,1799.863 399.417,1784.182 412.783,1776.538C414.594,1775.502 414.726,1773.318 415.202,1771.062C415.914,1767.684 416.18,1763.927 416.2,1759.822C416.297,1739.991 410.847,1714.516 403.251,1684.196C362.61,1521.98 261.577,1240.349 405.048,946.807C412.566,931.425 420.834,916.402 429.799,901.797C426.993,902.04 424.18,901.931 421.424,901.483C413.576,907.614 404.853,912.546 395.619,916.288C388.385,919.22 381.202,922.209 374.089,925.239C366.71,928.384 358.623,928.759 351.207,926.583C339.609,937.558 326.239,946.534 311.804,953.408L311.797,953.411C307.108,955.643 302.512,957.862 297.991,960.049C289.508,964.151 279.842,964.492 271.259,961.269C258.691,975.541 243.589,987.486 226.726,996.537C202.239,1009.687 187.417,1018.333 187.417,1018.333C176.703,1024.586 163.432,1024.501 152.8,1018.111C142.167,1011.72 135.864,1000.041 136.359,987.645C138.443,935.444 162.868,856.167 211.625,800.75C255.011,751.427 302.839,726.117 349.958,715.782ZM882.87,654.101C775.247,618.448 697.786,666.458 649.33,718.091C678.638,653.639 693.55,563.732 619.619,477.779C579.478,431.104 516.849,401.734 473.973,393.978C473.973,393.978 480.259,409.301 489.55,434.464C496.577,453.475 508.271,470.46 523.727,483.559L524.057,483.835C540.098,497.366 558.595,507.572 577.103,517.507C555.283,515.85 534.403,512.274 514.682,506.828C516.151,511.384 517.641,516.019 519.125,520.729C522.935,532.801 528.614,544.234 536.246,554.332C537.741,556.31 539.283,558.239 540.875,560.148C553.317,575.047 568.524,587.314 583.794,599.34C567.563,595.182 552.139,589.937 537.607,583.655C539.547,590.854 541.446,598.107 543.279,605.409C544.988,612.227 547.632,618.798 551.345,624.777C551.538,625.09 551.736,625.395 551.924,625.684C559.592,637.552 570.417,647.255 581.324,656.765C571.432,654.497 562.062,651.755 553.234,648.568C556.489,664.187 559.306,679.717 561.531,694.879C529.02,628.944 467.506,560.516 352.11,559.875C286.611,559.502 219.304,589.273 183.144,618.271C183.144,618.271 199.83,623.935 226.52,634.035C246.682,641.676 268.48,644.154 289.79,640.887C289.943,640.87 290.093,640.841 290.24,640.82C312.306,637.385 333.42,629.662 354.319,621.748C337.748,638.1 320.298,652.368 302.153,664.399C306.836,666.391 311.601,668.439 316.422,670.54C328.769,675.911 341.909,679.337 355.346,680.263C357.978,680.445 360.607,680.549 363.246,680.602C383.893,681.02 404.366,677.378 424.677,673.518C410.009,683.643 395.028,692.364 379.838,699.635C386.974,703.103 394.119,706.653 401.261,710.278C407.932,713.671 415.056,716.127 422.441,717.328C422.828,717.387 423.208,717.443 423.58,717.494C438.46,719.623 453.804,717.713 469.056,715.596C460.327,721.948 451.587,727.567 442.859,732.417C455.929,739.744 468.712,747.289 480.967,755.019C409.298,735.008 314.972,734.683 237.125,823.184C193.862,872.356 172.145,942.681 170.296,989C170.296,989 185.513,980.118 210.656,966.615C229.65,956.42 245.824,941.591 257.351,923.375C257.437,923.243 257.51,923.113 257.592,922.988C269.483,904.091 277.518,883.094 285.258,862.128C286.723,885.358 286.035,907.888 283.203,929.473C287.787,927.256 292.447,925.006 297.202,922.743C309.359,916.954 320.57,909.282 330.081,899.754C331.947,897.888 333.757,895.971 335.524,894.011C349.395,878.711 360.083,860.874 370.497,843.013C368.509,860.73 365.264,877.753 360.775,893.994C368.071,890.885 375.44,887.819 382.861,884.811C389.795,882.001 396.327,878.243 402.082,873.455C402.379,873.204 402.676,872.954 402.962,872.706C414.331,862.877 422.964,850.05 431.37,837.15C430.435,847.903 428.929,858.185 426.873,867.959C457.881,856.84 488.754,847.501 517.601,841.452C484.733,877.434 456.917,918.03 435.562,961.721C237.043,1367.89 526.682,1750.52 429.645,1806.02L763.391,1806.02C619.307,1778.09 582.631,1665.35 548.6,1591.15C471.336,1422.45 424.155,1228.95 473.576,1045.88C478.786,1026.41 485.398,1006.59 492.873,987.862C513.096,937.245 541.092,889.198 576.932,847.995C588.421,885.68 594.186,932.725 596.443,981.531C604.688,975.906 613.624,970.611 623.214,965.643C614.489,978.331 605.91,991.199 601.145,1005.45C601.024,1005.82 600.91,1006.18 600.792,1006.55C598.546,1013.69 597.563,1021.16 597.598,1028.65C597.652,1036.65 597.614,1044.63 597.522,1052.56C610.83,1042.24 625.342,1032.75 640.957,1024.17C628.411,1040.6 615.98,1057.27 607.104,1075.92C605.973,1078.3 604.89,1080.71 603.876,1083.14C598.678,1095.57 595.858,1108.85 595.128,1122.3C594.846,1127.55 594.543,1132.72 594.226,1137.81C613.12,1126.97 633.685,1117.75 655.726,1110.27C639.289,1125.4 622.924,1140.83 609.979,1159.02C609.89,1159.14 609.801,1159.26 609.708,1159.39C597.247,1176.98 589.699,1197.58 587.491,1219.02C584.577,1247.41 582.161,1264.87 582.161,1264.87C624.289,1245.52 681.052,1198.68 710.062,1139.96C762.245,1034.34 726.103,947.283 680.365,888.617C691.81,896.791 703.282,905.468 714.668,914.478C715.84,904.56 717.703,894.339 720.254,883.854C724.1,898.761 728.179,913.677 735.806,926.631C735.995,926.951 736.195,927.286 736.399,927.613C740.323,933.991 745.306,939.639 750.977,944.524C757.049,949.744 763.047,955.008 768.97,960.286C769.911,943.46 772.284,926.29 776.061,908.875C780.214,929.124 784.646,949.439 792.882,968.378C793.942,970.796 795.045,973.19 796.212,975.554C802.173,987.629 810.349,998.478 820.016,1007.85C823.788,1011.51 827.495,1015.13 831.124,1018.71C835.341,997.346 841.893,975.783 850.707,954.229C851.343,976.572 852.242,999.038 857.463,1020.74C857.499,1020.9 857.532,1021.04 857.571,1021.19C862.662,1042.14 873.252,1061.36 887.987,1077.1C907.489,1097.93 919.074,1111.2 919.074,1111.2C932.129,1066.73 934.043,993.152 908.769,932.724C864.255,826.261 777.56,795.417 704.214,790.45C719.09,786.74 734.519,783.433 750.205,780.495C743.892,773.548 737.796,765.922 731.924,757.64C744.873,764.113 757.965,770.419 771.856,773.004C772.205,773.061 772.558,773.13 772.919,773.184C779.862,774.34 786.94,774.293 793.904,773.28C801.352,772.191 808.78,771.187 816.174,770.24C804.828,759.196 794.111,746.924 784.095,733.497C801.017,743.046 818.152,752.441 836.672,758.278C839.037,759.024 841.416,759.712 843.811,760.341C856.056,763.559 868.785,764.452 881.397,763.383C886.323,762.97 891.174,762.57 895.948,762.204C883.405,746.032 872.15,728.084 862.307,708.546C878.542,721.872 895.028,735.095 913.64,744.783C913.766,744.846 913.893,744.909 914.015,744.98C932.021,754.291 952.18,758.639 972.426,757.89C999.233,756.911 1015.8,756.889 1015.8,756.889C992.302,720.197 941.309,673.458 882.87,654.101Z" style="fill:rgb(207,94,31);"/>
            </g>
        </g>
    </g>
</svg>
